<?xml version="1.0" encoding="UTF-8" standalone="no"?>
<!DOCTYPE svg PUBLIC "-//W3C//DTD SVG 1.1//EN" "http://www.w3.org/Graphics/SVG/1.1/DTD/svg11.dtd">
<svg width="100%" height="100%" viewBox="0 0 485 432" version="1.1" xmlns="http://www.w3.org/2000/svg" xmlns:xlink="http://www.w3.org/1999/xlink" xml:space="preserve" xmlns:serif="http://www.serif.com/" style="fill-rule:evenodd;clip-rule:evenodd;stroke-linejoin:round;stroke-miterlimit:2;">
    <g transform="matrix(1,0,0,1,-1171.741322,-689.860545)">
        <g transform="matrix(0,-0.855347,-0.855347,-0,2134.747424,2196.246387)">
            <path d="M1494.198,622.141C1361.898,629.834 1256.984,739.559 1256.984,873.788C1256.984,1012.914 1369.936,1125.866 1509.062,1125.866C1648.188,1125.866 1761.141,1012.914 1761.141,873.788C1761.141,866.496 1760.824,859.207 1760.192,851.942L1694.392,857.666C1694.859,863.027 1695.092,868.406 1695.092,873.788C1695.092,976.461 1611.735,1059.818 1509.062,1059.818C1406.39,1059.818 1323.032,976.461 1323.032,873.788C1323.032,784.077 1386.533,709.198 1471.039,691.647L1450.194,754.206L1676.827,721.803L1514.925,559.938L1494.198,622.141Z"/>
        </g>
    </g>
</svg>
